<svg width="151" height="36" viewBox="0 0 151 36" fill="none" xmlns="http://www.w3.org/2000/svg">
<g id="HeaderLogo">
<g id="Group">
<path id="Vector" d="M29.016 5.526C29.016 8.5725 26.5365 11.052 23.49 11.052H7.335C6.4665 11.052 5.76 11.7585 5.76 12.627C5.76 13.4955 6.4665 14.202 7.335 14.202H14.877C17.9235 14.202 20.403 16.6815 20.403 19.728C20.403 22.7745 17.9235 25.254 14.877 25.254H3.7845C2.6955 25.254 1.809 24.3675 1.809 23.2785C1.809 22.1895 2.6955 21.303 3.7845 21.303H14.877C15.7455 21.303 16.452 20.5965 16.452 19.728C16.452 18.8595 15.7455 18.153 14.877 18.153H7.335C4.2885 18.153 1.809 15.6735 1.809 12.627C1.809 9.5805 4.2885 7.101 7.335 7.101H23.49C24.3585 7.101 25.065 6.3945 25.065 5.526C25.065 4.6575 24.3585 3.951 23.49 3.951H15.417C14.328 3.951 13.4415 3.0645 13.4415 1.9755C13.4415 0.8865 14.328 0 15.417 0H23.49C26.5365 0 29.016 2.4795 29.016 5.526ZM3.7845 28.431C1.6965 28.431 0 30.1275 0 32.2155C0 34.3035 1.6965 36 3.7845 36C5.8725 36 7.569 34.3035 7.569 32.2155C7.569 30.1275 5.868 28.431 3.7845 28.431ZM3.7845 33.804C2.907 33.804 2.196 33.0885 2.196 32.2155C2.196 31.338 2.9115 30.627 3.7845 30.627C4.662 30.627 5.373 31.3425 5.373 32.2155C5.373 33.093 4.6575 33.804 3.7845 33.804ZM7.9065 1.9755C7.9065 0.8865 8.7885 0 9.882 0C10.9755 0 11.8575 0.882 11.8575 1.9755C11.8575 3.069 10.9755 3.951 9.882 3.951C8.7885 3.951 7.9065 3.0645 7.9065 1.9755Z" fill="#00ADB5"/>
</g>
<path id="Vector_2" d="M46.3423 6.75H60.7828C60.7828 8.145 60.5488 9.162 60.0853 9.7965C59.6218 10.431 58.8703 10.7505 57.8308 10.7505H48.6598V15.606H56.9758C56.9758 17.001 56.7418 18.018 56.2783 18.6525C55.8148 19.287 55.0633 19.6065 54.0238 19.6065H48.6598V26.0505C48.6598 27.171 48.2953 27.9855 47.5663 28.494C46.8373 29.0025 45.6448 29.2545 43.9978 29.2545V8.8785C43.9978 8.2845 44.2273 7.785 44.6818 7.371C45.1318 6.957 45.6853 6.75 46.3423 6.75ZM83.2738 14.6025C84.3808 15.66 84.9343 17.019 84.9343 18.693V23.5485C84.9343 24.633 84.6553 25.614 84.1018 26.478C83.5483 27.3465 82.8148 28.026 81.9103 28.5165C81.0013 29.007 80.0338 29.2545 79.0123 29.2545C77.8648 29.2545 76.8883 29.0295 76.0828 28.5795C75.2773 28.1295 74.5528 27.468 73.9048 26.5905L73.7473 26.7165C73.8508 26.9055 74.0488 27.1755 74.3413 27.531C74.3413 28.0755 74.0398 28.4985 73.4323 28.8C72.8248 29.1015 71.8123 29.2545 70.3948 29.2545V9.5715C70.3948 8.694 70.7548 8.0055 71.4748 7.5015C72.1948 6.9975 73.2883 6.75 74.7508 6.75V13.896C74.3953 14.148 74.1658 14.355 74.0623 14.5215L74.1883 14.679C74.7328 14.157 75.4573 13.7475 76.3663 13.455C77.2753 13.1625 78.0943 13.014 78.8278 13.014C80.6863 13.0185 82.1668 13.545 83.2738 14.6025ZM80.6413 19.0035C80.6413 18.27 80.3848 17.7075 79.8718 17.3115C79.3588 16.9155 78.6208 16.7175 77.6623 16.7175C76.7848 16.7175 76.0693 16.9245 75.5158 17.343C74.9623 17.7615 74.6833 18.2745 74.6833 18.8775V23.391C74.6833 24.0165 74.9623 24.534 75.5158 24.9435C76.0693 25.353 76.7848 25.5555 77.6623 25.5555C78.6208 25.5555 79.3588 25.3575 79.8718 24.9615C80.3848 24.5655 80.6413 23.9895 80.6413 23.238V19.0035ZM96.0538 13.023C94.0918 13.023 92.4493 14.0355 91.1353 16.0605L90.9148 15.9345C91.1218 15.5565 91.3828 15.2055 91.6978 14.868V13.0185C90.3388 13.0185 89.3173 13.302 88.6288 13.8645C87.9403 14.427 87.5938 15.2325 87.5938 16.2765V29.2455C89.0563 29.2455 90.1363 29.052 90.8383 28.665C91.5358 28.278 91.8868 27.6345 91.8868 26.739V20.133C91.8868 19.152 92.2738 18.3375 93.0478 17.6895C93.8218 17.0415 94.8343 16.7175 96.0853 16.7175C97.0663 16.7175 97.8493 16.884 98.4343 17.217C98.7493 16.7805 98.9023 16.2675 98.9023 15.6825C98.9023 14.9085 98.6638 14.274 98.1823 13.77C97.7008 13.275 96.9943 13.023 96.0538 13.023ZM115.408 16.0785C116.034 17.028 116.349 18.0765 116.349 19.2285V23.3955C116.349 24.525 116.025 25.533 115.377 26.4195C114.729 27.306 113.842 27.999 112.713 28.503C111.583 29.0025 110.332 29.2545 108.955 29.2545C107.578 29.2545 106.323 29.0025 105.198 28.503C104.068 28.0035 103.182 27.306 102.534 26.4195C101.886 25.533 101.562 24.525 101.562 23.3955V19.2285C101.562 18.081 101.877 17.0325 102.502 16.0785C103.128 15.129 104.005 14.382 105.135 13.8375C106.264 13.293 107.538 13.023 108.955 13.023C110.377 13.023 111.651 13.293 112.776 13.8375C113.905 14.382 114.778 15.129 115.408 16.0785ZM112.056 19.4445C112.056 18.63 111.777 17.973 111.228 17.469C110.674 16.9695 109.918 16.7175 108.955 16.7175C107.992 16.7175 107.236 16.9695 106.683 17.469C106.129 17.9685 105.855 18.63 105.855 19.4445V23.076C105.855 23.85 106.125 24.453 106.669 24.894C107.214 25.3305 107.974 25.551 108.955 25.551C109.936 25.551 110.697 25.3305 111.241 24.894C111.786 24.4575 112.056 23.85 112.056 23.076V19.4445ZM129.187 15.5295V22.14C129.187 23.1435 128.904 23.9625 128.341 24.597C127.779 25.236 126.996 25.551 125.992 25.551C125.115 25.551 124.449 25.3305 123.985 24.894C123.526 24.4575 123.297 23.859 123.297 23.1075V13.023C121.834 13.023 120.754 13.2165 120.052 13.6035C119.35 13.9905 119.004 14.634 119.004 15.5295V23.4225C119.004 24.552 119.247 25.56 119.742 26.4465C120.232 27.333 120.907 28.0215 121.762 28.512C122.617 29.0025 123.567 29.25 124.611 29.25C126.847 29.25 128.62 28.2375 129.934 26.2125L130.155 26.3385C129.948 26.7165 129.687 27.0675 129.372 27.405V29.2545C130.731 29.2545 131.752 28.971 132.441 28.4085C133.129 27.846 133.476 27.0405 133.476 25.9965V13.023C132.013 13.023 130.933 13.2165 130.231 13.6035C129.534 13.9905 129.187 14.634 129.187 15.5295ZM148.492 21.1365C147.439 20.2815 145.711 19.593 143.308 19.071C142.201 18.8415 141.414 18.612 140.941 18.3825C140.473 18.153 140.235 17.838 140.235 17.442C140.235 17.0865 140.518 16.785 141.081 16.533C141.643 16.281 142.291 16.155 143.025 16.155C144.046 16.155 144.838 16.3485 145.392 16.7355C145.945 17.1225 146.359 17.712 146.629 18.504C147.651 18.4815 148.384 18.342 148.821 18.081C149.257 17.82 149.478 17.397 149.478 16.812C149.478 15.6645 148.852 14.7465 147.597 14.0535C146.341 13.3605 144.717 13.0185 142.71 13.0185C140.662 13.0185 139.069 13.4325 137.931 14.256C136.792 15.0795 136.225 16.173 136.225 17.532C136.225 18.4905 136.432 19.2645 136.851 19.8495C137.269 20.4345 137.922 20.9205 138.808 21.3075C139.695 21.6945 140.941 22.077 142.552 22.4505C143.929 22.7835 144.847 23.1075 145.311 23.4225C145.77 23.7375 145.999 24.102 145.999 24.5205C145.999 25.002 145.711 25.3665 145.14 25.6185C144.564 25.8705 143.754 25.9965 142.714 25.9965C141.814 25.9965 141.031 25.7625 140.365 25.29C139.695 24.822 139.281 24.1695 139.114 23.3325C138.07 23.3325 137.314 23.5215 136.842 23.895C136.374 24.2685 136.135 24.732 136.135 25.272C136.135 26.4825 136.752 27.45 137.985 28.17C139.218 28.89 140.896 29.25 143.029 29.25C144.469 29.25 145.725 29.0565 146.787 28.6695C147.853 28.2825 148.668 27.7335 149.23 27.027C149.793 26.316 150.076 25.515 150.076 24.615C150.076 23.1525 149.545 21.9915 148.492 21.1365ZM65.5888 6.75C64.4008 6.75 63.4378 7.713 63.4378 8.901C63.4378 10.089 64.4008 11.052 65.5888 11.052C66.7768 11.052 67.7398 10.089 67.7398 8.901C67.7398 7.713 66.7768 6.75 65.5888 6.75ZM63.4378 16.7175V29.2545H64.0183C66.0703 29.2545 67.7353 27.5895 67.7353 25.5375V12.996H67.1548C65.1028 12.996 63.4378 14.661 63.4378 16.7175Z" fill="white"/>
</g>
</svg>
